<svg xmlns="http://www.w3.org/2000/svg" viewBox="0 0 400 400" width="400" height="400">
  <defs>
    <clipPath id="blob-clip">
      <path d="M200 30c90 0 160 70 160 160s-70 170-160 170S30 290 30 200 110 30 200 30z"/>
    </clipPath>
  </defs>
  <!-- Background blobs -->
  <ellipse cx="170" cy="210" rx="120" ry="140" fill="#FF6700" opacity="0.9"/>
  <ellipse cx="220" cy="180" rx="110" ry="130" fill="#FF9248" opacity="0.85"/>
  <ellipse cx="190" cy="160" rx="90" ry="110" fill="#FFB38A" opacity="0.8"/>
  <ellipse cx="210" cy="200" rx="80" ry="100" fill="#c0392b" opacity="0.6"/>
  <!-- Caduceus-inspired medical symbol (simplified) -->
  <g transform="translate(145,80)" fill="rgba(255,255,255,0.9)">
    <rect x="22" y="20" width="4" height="100" rx="2"/>
    <!-- Wings simplified -->
    <path d="M24 25c-12-8-25-5-30 5 8-5 18-5 30-5z" fill="rgba(255,255,255,0.7)"/>
    <path d="M24 25c12-8 25-5 30 5-8-5-18-5-30-5z" fill="rgba(255,255,255,0.7)"/>
    <!-- Serpent paths simplified -->
    <path d="M24 40c-20 10-20 25 0 35 20-10 20-25 0-35z" fill="none" stroke="rgba(255,255,255,0.8)" stroke-width="3"/>
    <path d="M24 65c-20 10-20 25 0 35 20-10 20-25 0-35z" fill="none" stroke="rgba(255,255,255,0.8)" stroke-width="3"/>
  </g>
  <!-- Scale of justice (simplified) -->
  <g transform="translate(220,180)" fill="rgba(255,255,255,0.85)">
    <rect x="18" y="0" width="3" height="50" rx="1.5"/>
    <line x1="0" y1="10" x2="39" y2="10" stroke="rgba(255,255,255,0.85)" stroke-width="2.5"/>
    <path d="M0 10l-6 20h16z" fill="rgba(255,255,255,0.6)"/>
    <path d="M39 10l-6 20h16z" fill="rgba(255,255,255,0.6)"/>
  </g>
  <!-- Heartbeat line -->
  <polyline points="130,260 160,260 170,240 180,280 190,250 200,260 270,260"
    fill="none" stroke="rgba(255,255,255,0.8)" stroke-width="3" stroke-linecap="round" stroke-linejoin="round"/>
  <!-- Head silhouette (simplified) -->
  <circle cx="195" cy="150" r="35" fill="rgba(0,128,128,0.6)"/>
  <path d="M195 115a35 35 0 0 1 0 70" fill="rgba(0,100,120,0.5)"/>
</svg>
